<?xml version="1.0" standalone="no"?>
<!DOCTYPE svg PUBLIC "-//W3C//DTD SVG 20010904//EN"
 "http://www.w3.org/TR/2001/REC-SVG-20010904/DTD/svg10.dtd">
<svg version="1.0" xmlns="http://www.w3.org/2000/svg"
 width="90.000000pt" height="143.000000pt" viewBox="0 0 90.000000 143.000000"
 preserveAspectRatio="xMidYMid meet">
<metadata>
Created by potrace 1.10, written by Peter Selinger 2001-2011
</metadata>
<g transform="translate(0.000000,143.000000) scale(0.100000,-0.100000)"
fill="#000000" stroke="none">
<path d="M442 1237 c-13 -23 -71 -134 -129 -247 -59 -113 -112 -214 -120 -225
-7 -11 -13 -27 -13 -37 0 -19 267 -561 278 -565 4 -2 73 122 153 275 l147 278
-142 282 c-77 155 -143 282 -146 282 -3 0 -15 -19 -28 -43z m161 -253 l133
-267 -135 -258 c-75 -142 -138 -259 -141 -259 -9 0 -260 513 -260 531 0 8 4
19 9 25 8 9 196 368 236 451 11 23 21 42 22 43 2 0 63 -120 136 -266z"/>
</g>
</svg>
