<?xml version="1.0" standalone="no"?>
<!DOCTYPE svg PUBLIC "-//W3C//DTD SVG 20010904//EN"
 "http://www.w3.org/TR/2001/REC-SVG-20010904/DTD/svg10.dtd">
<svg version="1.0" xmlns="http://www.w3.org/2000/svg"
 width="78.000000pt" height="130.000000pt" viewBox="0 0 78.000000 130.000000"
 preserveAspectRatio="xMidYMid meet">
<metadata>
Created by potrace 1.10, written by Peter Selinger 2001-2011
</metadata>
<g transform="translate(0.000000,130.000000) scale(0.100000,-0.100000)"
fill="#000000" stroke="none">
<path d="M203 1140 c-34 -20 -53 -48 -53 -75 0 -10 20 -49 44 -89 24 -39 49
-89 55 -111 18 -68 13 -150 -13 -213 -63 -151 -74 -277 -32 -368 42 -91 141
-145 266 -146 126 -2 200 35 200 98 0 22 -15 56 -44 102 -29 44 -49 89 -57
128 -13 65 -10 85 32 199 16 45 22 83 23 150 0 79 -3 98 -28 153 -54 118 -170
192 -299 192 -44 0 -71 -6 -94 -20z m172 -11 c5 -5 18 -9 30 -9 11 0 27 -5 35
-10 10 -7 -30 -10 -123 -10 -90 0 -136 4 -132 10 3 6 15 10 26 10 10 0 19 4
19 9 0 19 124 19 145 0z m110 -49 c4 -7 -50 -10 -154 -10 -101 0 -161 4 -161
10 0 6 58 10 154 10 93 0 157 -4 161 -10z m40 -30 c4 -7 -57 -10 -174 -10
-114 0 -181 4 -181 10 0 14 347 14 355 0z m25 -30 c0 -14 -357 -14 -365 0 -4
7 58 10 179 10 117 0 186 -4 186 -10z m20 -30 c0 -14 -357 -14 -365 0 -4 7 58
10 179 10 117 0 186 -4 186 -10z m15 -30 c4 -7 -56 -10 -174 -10 -109 0 -182
4 -186 10 -4 7 56 10 174 10 109 0 182 -4 186 -10z m10 -30 c4 -7 -57 -10
-174 -10 -114 0 -181 4 -181 10 0 14 347 14 355 0z m10 -30 c3 -5 -62 -10
-171 -12 -165 -3 -193 0 -177 16 10 10 341 7 348 -4z m5 -67 l0 -43 -165 0
c-103 0 -165 4 -165 10 0 6 61 10 162 10 89 0 158 3 154 7 -4 4 -77 6 -162 5
-152 -2 -155 -1 -163 21 -5 12 -7 24 -6 27 2 3 80 5 174 6 l171 0 0 -43z m0
-63 c0 -6 -62 -10 -165 -10 -103 0 -165 4 -165 10 0 6 62 10 165 10 103 0 165
-4 165 -10z m-5 -30 c-4 -6 -70 -10 -166 -10 -99 0 -159 4 -159 10 0 6 62 10
166 10 107 0 163 -3 159 -10z m-5 -30 c0 -6 -62 -10 -165 -10 -103 0 -165 4
-165 10 0 6 62 10 165 10 103 0 165 -4 165 -10z m-10 -30 c0 -6 -62 -10 -166
-10 -107 0 -163 3 -159 10 8 14 325 14 325 0z m-10 -30 c0 -6 -62 -10 -166
-10 -107 0 -163 3 -159 10 8 14 325 14 325 0z m-10 -30 c0 -6 -62 -10 -165
-10 -103 0 -165 4 -165 10 0 6 62 10 165 10 103 0 165 -4 165 -10z m-16 -42
c-5 -13 -8 -40 -8 -60 l1 -38 -174 0 c-109 0 -173 4 -173 10 0 6 62 10 165 10
114 0 165 3 165 11 0 8 -48 10 -160 7 l-160 -4 3 26 4 25 164 5 164 6 -157 2
c-97 1 -158 6 -158 12 0 6 62 10 166 10 l165 0 -7 -22z m-4 -118 c0 -6 -67
-10 -180 -10 -113 0 -180 4 -180 10 0 6 67 10 180 10 113 0 180 -4 180 -10z
m10 -30 c0 -6 -68 -10 -185 -10 -117 0 -185 4 -185 10 0 6 68 10 185 10 117 0
185 -4 185 -10z m10 -30 c0 -6 -70 -10 -190 -10 -120 0 -190 4 -190 10 0 6 70
10 190 10 120 0 190 -4 190 -10z m15 -30 c4 -7 -63 -10 -194 -10 -127 0 -201
4 -201 10 0 6 71 10 194 10 119 0 197 -4 201 -10z m20 -30 c4 -7 -65 -10 -199
-10 -131 0 -206 4 -206 10 0 14 397 14 405 0z m20 -30 c4 -7 -67 -10 -204 -10
-134 0 -211 4 -211 10 0 14 407 14 415 0z m20 -30 c4 -7 -65 -10 -199 -10
-113 0 -209 0 -213 -1 -4 0 -9 4 -11 10 -5 15 414 15 423 1z m10 -30 c5 -8
-380 -20 -405 -12 -6 2 -10 8 -10 13 0 12 407 12 415 -1z m-7 -31 c-2 -7 -57
-11 -163 -12 l-160 -1 153 -3 c84 -2 152 -8 152 -13 0 -26 -171 -49 -233 -31
-52 16 -127 53 -127 63 0 5 86 8 191 8 134 0 190 -3 187 -11z"/>
<path d="M267 1123 c18 -2 50 -2 70 0 21 2 7 4 -32 4 -38 0 -55 -2 -38 -4z"/>
<path d="M285 850 c-4 -7 50 -10 154 -10 101 0 161 4 161 10 0 6 -58 10 -154
10 -93 0 -157 -4 -161 -10z"/>
<path d="M225 540 c-4 -7 48 -10 149 -10 97 0 156 4 156 10 0 6 -56 10 -149
10 -89 0 -152 -4 -156 -10z"/>
</g>
</svg>
